<?xml version="1.0"?>
<svg version="1.1" id="Layer_1" xmlns="http://www.w3.org/2000/svg" x="0" y="0" viewBox="0 0 100 100" xml:space="preserve"><g><path d="M85.7 31.9H14.3c-2.4 0-4.3-1.9-4.3-4.3s1.9-4.3 4.3-4.3h71.5c2.4 0 4.3 1.9 4.3 4.3-.1 2.4-2 4.3-4.4 4.3z" fill="#d65a62"/></g><g><path d="M85.7 46.8H14.3c-2.4 0-4.3-1.9-4.3-4.3s1.9-4.3 4.3-4.3h71.5c2.4 0 4.3 1.9 4.3 4.3-.1 2.4-2 4.3-4.4 4.3z" fill="#d65a62"/></g><g><path d="M85.7 61.7H14.3c-2.4 0-4.3-1.9-4.3-4.3s1.9-4.3 4.3-4.3h71.5c2.4 0 4.3 1.9 4.3 4.3-.1 2.4-2 4.3-4.4 4.3z" fill="#d65a62"/></g><g><path d="M85.7 76.7H14.3c-2.4 0-4.3-1.9-4.3-4.3s1.9-4.3 4.3-4.3h71.5c2.4 0 4.3 1.9 4.3 4.3-.1 2.4-2 4.3-4.4 4.3z" fill="#d65a62"/></g><metadata xmlns:d="https://loading.io/stock/"><d:name>menu</d:name><d:tags>hamburger,bars,stripe,navigation,navbar,dropdown,menu,web application</d:tags><d:license>free</d:license><d:slug>q66yng</d:slug></metadata></svg>